<?xml version="1.0" standalone="no"?>
<!DOCTYPE svg PUBLIC "-//W3C//DTD SVG 20010904//EN"
 "http://www.w3.org/TR/2001/REC-SVG-20010904/DTD/svg10.dtd">
<svg version="1.0" xmlns="http://www.w3.org/2000/svg"
 width="1912.000000pt" height="1912.000000pt" viewBox="0 0 1912.000000 1912.000000"
 preserveAspectRatio="xMidYMid meet">

<g transform="translate(0.000000,1912.000000) scale(0.100000,-0.100000)"
fill="#000000" stroke="none">
<path d="M9085 19109 c-2021 -106 -3918 -823 -5485 -2075 -520 -415 -1099
-994 -1514 -1514 -1389 -1740 -2123 -3898 -2083 -6120 8 -427 30 -732 82
-1117 216 -1608 828 -3113 1798 -4423 134 -180 416 -528 542 -666 218 -241
459 -483 730 -734 73 -68 304 -264 425 -361 1164 -937 2577 -1604 4037 -1903
1152 -237 2357 -261 3513 -70 1757 290 3396 1068 4745 2253 285 251 615 581
866 866 1006 1145 1719 2497 2089 3960 324 1280 379 2646 160 3946 -135 802
-393 1653 -706 2327 -19 41 -34 76 -34 79 0 12 -253 510 -325 638 -390 700
-898 1394 -1405 1918 -58 60 -108 114 -112 121 -6 12 -282 276 -438 421 -156
144 -500 426 -710 582 -1137 842 -2432 1420 -3797 1693 -436 87 -784 134
-1268 170 -191 15 -901 21 -1110 9z m1080 -219 c2091 -146 3991 -936 5570
-2316 216 -188 646 -618 839 -839 1134 -1294 1875 -2821 2180 -4490 105 -572
149 -1078 149 -1690 0 -371 -9 -570 -39 -885 -188 -1969 -982 -3803 -2292
-5290 -170 -194 -620 -645 -812 -815 -912 -806 -1968 -1426 -3115 -1830 -589
-206 -1263 -366 -1880 -444 -437 -56 -742 -74 -1205 -74 -492 0 -854 24 -1315
89 -1646 231 -3211 907 -4514 1950 -518 415 -1041 936 -1447 1441 -876 1089
-1487 2324 -1809 3656 -181 748 -259 1415 -259 2207 0 421 8 598 45 950 236
2292 1282 4369 2994 5945 521 480 1140 926 1790 1289 151 85 621 317 780 386
1093 473 2160 716 3405 774 135 6 782 -3 935 -14z"/>
<path d="M8558 18286 c-20 -7 -52 -26 -70 -41 -78 -65 -350 -339 -374 -376
-27 -43 -57 -119 -50 -126 13 -13 120 58 181 121 90 92 277 263 290 264 21 3
8 -110 -38 -323 -52 -248 -67 -299 -90 -303 -25 -5 -37 53 -35 166 2 118 -6
136 -49 110 -32 -19 -41 -46 -48 -148 -11 -144 -9 -138 -80 -170 -71 -32 -86
-56 -61 -95 13 -20 25 -25 57 -25 38 0 41 -2 35 -22 -4 -13 -13 -56 -21 -96
-8 -40 -23 -87 -32 -104 -10 -17 -23 -39 -29 -50 -18 -30 -6 -56 41 -91 56
-42 62 -53 75 -134 13 -78 7 -127 -21 -161 -10 -14 -19 -33 -19 -43 0 -21 54
-59 83 -59 14 0 17 -9 17 -53 0 -30 3 -88 6 -130 l7 -75 -32 -16 c-59 -31 -36
-92 46 -122 57 -20 199 -18 264 5 31 10 75 22 100 26 95 16 135 57 126 131 -3
34 -13 55 -38 81 -30 31 -39 34 -74 30 -22 -2 -74 -21 -117 -41 -90 -43 -138
-48 -138 -14 0 12 34 90 75 173 127 256 120 299 -45 276 -37 -5 -72 -5 -82 0
-19 10 -27 53 -29 174 -4 160 -7 149 69 198 115 76 110 63 143 324 39 302 55
394 84 476 28 78 50 198 41 231 -11 43 -92 59 -168 32z"/>
<path d="M7550 17779 c-19 -12 -53 -38 -75 -59 -22 -20 -92 -74 -155 -120
-166 -119 -180 -134 -180 -191 0 -46 1 -47 48 -69 26 -12 64 -25 85 -28 36 -4
42 -1 93 49 52 50 56 53 69 36 18 -25 24 -84 27 -268 3 -180 3 -182 -87 -223
-29 -13 -75 -46 -102 -74 -40 -41 -52 -60 -57 -95 -8 -51 0 -77 22 -77 9 0 54
19 101 41 100 49 110 47 130 -34 15 -56 15 -56 -22 -149 -21 -55 -41 -128 -48
-178 -6 -47 -14 -100 -16 -117 -4 -27 -1 -34 20 -44 66 -30 142 26 201 148 71
144 143 408 181 663 8 52 -11 19 -35 -62 -23 -75 -44 -91 -85 -64 -32 21 -31
41 5 95 17 24 30 49 30 56 0 15 -33 45 -49 45 -10 0 -11 37 -6 173 6 142 12
192 36 286 16 62 29 124 29 137 0 14 -19 44 -45 74 -25 28 -45 55 -45 60 0 16
-33 11 -70 -11z"/>
<path d="M7895 17696 c-28 -7 -56 -16 -63 -20 -20 -12 -14 -43 12 -59 28 -19
53 -110 62 -225 10 -136 28 -162 114 -162 79 0 83 27 45 267 -32 194 -30 187
-61 201 -30 14 -44 14 -109 -2z"/>
<path d="M11843 17622 c-30 -5 -50 -29 -35 -44 7 -7 12 -32 12 -57 0 -56 40
-170 74 -216 52 -68 186 -101 218 -54 11 17 48 30 168 60 85 21 185 41 223 45
61 6 67 5 67 -11 0 -25 -73 -92 -210 -191 -63 -46 -164 -127 -225 -180 -174
-153 -297 -258 -335 -286 -25 -19 -73 -35 -175 -58 -77 -18 -181 -43 -232 -57
l-91 -25 -111 16 c-177 26 -185 24 -197 -50 -8 -51 9 -115 41 -152 28 -33 196
-137 236 -147 20 -5 45 3 100 33 101 56 204 95 382 146 279 81 331 89 534 90
l182 1 30 29 c34 32 51 73 42 97 -7 18 -54 60 -88 78 -31 16 -50 14 -81 -9
-36 -26 -172 -41 -172 -18 0 21 144 172 253 266 51 43 155 127 232 186 145
111 159 126 170 188 7 36 6 37 -67 91 -117 87 -124 90 -223 76 -182 -26 -484
36 -608 124 -32 22 -80 34 -114 29z"/>
<path d="M4508 16433 c-45 -52 -83 -169 -118 -364 -26 -150 -35 -179 -59 -195
-11 -8 -24 -29 -31 -48 -9 -29 -6 -46 21 -127 28 -83 30 -103 25 -170 -6 -89
-34 -170 -75 -219 l-28 -35 -35 70 c-22 43 -40 99 -48 145 -6 41 -23 123 -36
182 -30 135 -30 201 1 313 14 50 25 108 25 131 0 50 -38 128 -84 173 -44 43
-59 34 -82 -51 -10 -33 -23 -62 -30 -65 -8 -3 -81 4 -164 16 -192 27 -210 27
-210 1 0 -11 50 -99 111 -197 118 -188 149 -248 149 -290 0 -14 -16 -78 -35
-142 -19 -64 -53 -195 -76 -291 -35 -151 -46 -183 -80 -234 -51 -76 -50 -107
2 -120 27 -7 44 -5 69 8 18 9 43 16 56 16 36 0 71 20 83 47 6 13 18 77 27 141
28 212 82 392 118 392 25 0 68 -61 122 -177 34 -72 67 -125 93 -151 62 -61 63
-74 6 -231 -14 -40 -24 -76 -21 -78 11 -12 54 9 103 49 l53 43 0 126 0 125 60
-4 c39 -3 65 0 75 8 17 14 20 81 6 108 -5 10 -14 52 -20 94 l-11 77 55 113
c77 156 77 231 0 259 -73 27 -75 32 -45 195 21 118 33 154 50 154 6 0 32 -35
60 -77 182 -288 319 -472 534 -723 177 -205 226 -269 226 -294 0 -20 -33 -41
-103 -65 -63 -22 -137 -61 -137 -72 0 -22 114 -25 304 -8 150 13 185 29 215
98 11 27 21 53 21 57 0 4 -42 52 -94 108 -323 349 -472 517 -657 741 -91 110
-249 328 -288 398 -28 48 -37 57 -60 57 -16 0 -35 -8 -43 -17z"/>
<path d="M15500 15864 c-55 -19 -70 -37 -70 -84 0 -29 -18 -65 -86 -171 -141
-220 -154 -238 -183 -243 -79 -14 -102 -15 -152 -6 -30 6 -128 20 -219 30 -91
11 -182 23 -202 26 -34 6 -38 4 -57 -27 -33 -54 -28 -86 22 -134 59 -57 108
-69 252 -63 63 2 115 2 115 -1 0 -3 -9 -20 -19 -37 -27 -44 -84 -68 -267 -115
-88 -22 -202 -54 -254 -71 -84 -27 -115 -31 -276 -38 -199 -9 -547 -59 -601
-86 -45 -23 -49 -42 -10 -49 55 -9 373 -23 557 -24 162 -2 193 1 410 38 129
21 259 49 287 60 69 27 180 83 239 121 27 16 75 38 107 47 36 10 84 35 125 65
37 27 77 51 90 55 42 10 99 -4 161 -41 34 -20 68 -36 76 -36 20 0 73 48 90 81
19 36 19 93 0 109 -8 7 -49 13 -100 14 -47 0 -85 5 -85 9 0 13 32 56 143 190
150 183 152 195 57 325 -58 80 -68 84 -150 56z"/>
<path d="M9300 15590 c-1500 -66 -2881 -664 -3959 -1715 -714 -696 -1251
-1572 -1545 -2519 -365 -1173 -361 -2464 10 -3631 386 -1214 1148 -2269 2194
-3041 487 -359 1075 -662 1664 -855 98 -33 184 -59 190 -59 11 1 126 163 126
178 0 4 -21 14 -47 21 -108 31 -307 97 -438 146 -1062 400 -1992 1117 -2677
2065 -320 442 -611 1017 -786 1550 -212 645 -303 1258 -289 1950 14 680 127
1272 363 1900 89 239 139 352 149 342 5 -4 5 -2 1 5 -3 7 4 34 18 60 13 26 47
93 74 148 119 237 139 268 180 268 18 0 32 4 32 9 0 4 10 8 23 8 13 0 28 5 35
12 9 9 15 9 24 0 9 -9 330 -12 1384 -12 905 0 1375 -3 1379 -10 5 -8 -12 -14
-35 -12 -10 1 -9 -37 1 -43 5 -4 9 -11 9 -16 0 -6 -5 -7 -10 -4 -6 4 -9 1 -8
-6 2 -7 -6 -13 -17 -14 -13 0 -20 -7 -20 -20 0 -25 -15 -50 -35 -58 -13 -5
-12 -6 1 -6 9 -1 28 16 43 37 14 21 68 72 118 113 89 71 146 125 178 165 29
37 60 91 55 97 -3 4 -2 5 2 2 7 -5 53 58 53 72 0 5 27 35 60 68 32 32 57 61
55 65 -2 4 2 7 9 7 11 0 101 57 116 74 12 13 109 47 153 53 l47 7 0 82 c1 97
11 146 46 223 65 142 114 359 114 506 l0 68 36 15 c50 20 117 19 162 -4 47
-24 170 -61 337 -101 87 -20 162 -46 230 -79 95 -45 282 -165 372 -237 23 -19
46 -34 51 -34 6 0 74 45 152 100 78 54 194 126 258 159 101 51 143 66 302 105
102 25 218 59 259 75 81 34 134 39 185 17 38 -16 38 -18 51 -206 7 -108 31
-203 90 -355 42 -108 47 -131 52 -227 l6 -107 46 -7 c47 -7 122 -32 131 -44 3
-4 21 -15 40 -25 19 -10 54 -33 77 -52 24 -19 48 -31 54 -27 7 4 9 3 6 -3 -8
-13 27 -46 38 -36 4 5 5 2 1 -5 -8 -14 41 -79 56 -74 5 1 7 -2 3 -8 -8 -14 64
-132 78 -127 6 2 13 9 15 17 3 7 0 10 -7 6 -7 -5 -9 -1 -4 10 4 11 3 15 -5 10
-6 -3 -13 -3 -16 2 -2 4 5 8 18 8 25 0 30 -32 9 -58 -16 -18 2 -39 26 -31 13
4 13 3 2 -5 -10 -8 -6 -17 20 -45 47 -49 190 -160 197 -153 3 3 7 17 8 31 2
18 -2 25 -14 25 -13 0 -14 -2 -3 -9 9 -6 10 -11 2 -15 -6 -4 -18 0 -27 8 -8 9
-22 16 -29 16 -29 0 -22 16 8 18 18 1 690 3 1495 5 1040 1 1461 -1 1458 -9 -2
-6 6 -10 17 -9 17 2 22 8 20 26 l-2 24 12 -25 c6 -14 14 -27 17 -30 14 -12 48
-80 41 -80 -5 0 -12 7 -15 16 -4 9 -9 14 -12 11 -8 -7 24 -53 34 -48 8 4 25
-24 87 -149 26 -52 60 -121 76 -153 16 -32 26 -64 23 -70 -4 -7 -4 -9 1 -5 7
6 72 -124 78 -157 2 -5 5 -14 9 -20 15 -24 110 -283 153 -415 121 -376 206
-781 251 -1193 21 -195 30 -757 15 -973 -85 -1202 -511 -2293 -1267 -3245
-142 -179 -235 -282 -433 -479 -589 -587 -1260 -1023 -2030 -1319 -133 -52
-465 -161 -488 -161 -7 0 -13 -3 -13 -7 0 -15 116 -182 126 -182 20 -1 265 80
428 141 1013 382 1901 1029 2591 1888 299 372 600 865 788 1291 448 1012 614
2111 482 3194 -168 1371 -782 2615 -1771 3585 -387 380 -827 711 -1276 961
-118 66 -421 217 -513 256 -187 80 -252 106 -397 157 -595 211 -1151 318
-1798 346 -242 10 -252 10 -500 0z m-1650 -2990 c0 -5 -2 -10 -4 -10 -3 0 -8
5 -11 10 -3 6 -1 10 4 10 6 0 11 -4 11 -10z m-27 -14 c4 -10 1 -13 -9 -9 -15
6 -19 23 -5 23 5 0 11 -7 14 -14z m-3018 -6 c-3 -5 1 -10 9 -10 10 0 13 -6 10
-15 -6 -14 -8 -13 -19 2 -12 16 -11 33 1 33 3 0 2 -4 -1 -10z m9889 -16 c3 -8
2 -12 -4 -9 -6 3 -10 10 -10 16 0 14 7 11 14 -7z m36 12 c0 -3 -4 -8 -10 -11
-5 -3 -10 -1 -10 4 0 6 5 11 10 11 6 0 10 -2 10 -4z m-9960 -60 l-23 -21 19
33 c10 18 20 28 23 21 2 -6 -7 -21 -19 -33z m6934 28 c5 -14 4 -15 -9 -4 -17
14 -19 20 -6 20 5 0 12 -7 15 -16z m-3899 -4 c3 -5 1 -10 -4 -10 -6 0 -11 5
-11 10 0 6 2 10 4 10 3 0 8 -4 11 -10z m6945 -5 c11 -13 10 -14 -4 -9 -9 3
-16 10 -16 15 0 13 6 11 20 -6z m-3020 -67 c0 -15 -18 0 -41 35 l-22 32 31
-29 c18 -17 32 -34 32 -38z m-3957 32 c-3 -12 -8 -19 -11 -16 -5 6 5 36 12 36
2 0 2 -9 -1 -20z m6981 -1 c17 15 29 0 19 -25 -4 -12 -3 -15 5 -10 7 4 12 3
12 -3 0 -5 -4 -12 -9 -15 -12 -8 -22 20 -14 42 6 15 5 15 -10 3 -14 -11 -20
-11 -32 -1 -8 7 -15 18 -15 24 0 6 7 2 15 -8 11 -15 17 -17 29 -7z m-9958 -16
c-10 -10 -19 5 -10 18 6 11 8 11 12 0 2 -7 1 -15 -2 -18z m2948 2 c3 -8 1 -15
-4 -15 -6 0 -10 7 -10 15 0 8 2 15 4 15 2 0 6 -7 10 -15z m-39 -18 c-8 -4 -24
-5 -35 -2 -11 4 -20 2 -20 -3 0 -16 30 -23 52 -11 11 6 22 8 26 5 3 -3 1 -6
-4 -6 -6 0 -21 -10 -35 -22 -13 -12 -33 -30 -45 -40 -16 -14 -27 -16 -44 -10
l-24 9 27 7 c16 3 25 11 22 16 -3 6 -1 10 4 10 6 0 11 11 11 23 0 31 3 33 45
33 25 0 31 -3 20 -9z m4085 2 c5 9 8 5 8 -11 0 -17 -6 -24 -19 -24 -11 0 -17
6 -15 12 2 6 -1 18 -7 25 -9 9 -7 9 6 -1 15 -11 20 -11 27 -1z m-7039 -30 c-9
-21 -10 -22 -11 -4 0 18 -2 18 -20 -5 -11 -14 -20 -20 -19 -15 0 18 27 47 38
40 6 -3 11 -1 11 6 0 7 2 10 5 7 3 -3 1 -16 -4 -29z m2849 -79 c0 -5 -4 -10
-10 -10 -5 0 -10 5 -10 10 0 6 5 10 10 10 6 0 10 -4 10 -10z m-50 -54 c0 -3
-4 -8 -10 -11 -5 -3 -10 -1 -10 4 0 6 5 11 10 11 6 0 10 -2 10 -4z"/>
<path d="M7441 12413 l-13 -28 21 22 c23 24 26 33 13 33 -5 0 -14 -12 -21 -27z"/>
<path d="M4668 15354 c-31 -16 -58 -61 -58 -94 0 -13 -20 -41 -51 -69 -59 -54
-68 -92 -29 -123 29 -23 38 -23 80 6 20 13 44 25 54 27 10 2 23 20 31 41 7 21
31 68 54 106 22 38 41 71 41 75 0 11 -63 47 -80 47 -8 -1 -27 -7 -42 -16z"/>
<path d="M4882 15264 c-19 -13 -22 -24 -22 -87 l-1 -72 -79 -54 c-44 -30 -80
-56 -80 -58 0 -3 25 -31 55 -63 l56 -58 -30 -48 c-33 -52 -51 -114 -33 -114 5
0 33 25 60 55 28 30 54 55 59 55 5 0 27 -18 48 -41 72 -74 156 -109 224 -94
68 15 56 83 -30 180 -25 28 -71 81 -103 120 l-59 69 6 98 c4 54 4 105 1 113
-8 19 -44 19 -72 -1z"/>
<path d="M15009 14939 c-31 -12 -45 -41 -58 -126 -5 -34 -17 -75 -25 -92 -24
-45 -44 -144 -52 -248 -9 -116 -1 -129 100 -176 49 -24 101 -60 153 -107 43
-40 91 -78 106 -86 55 -29 62 9 18 89 -44 77 -107 253 -122 338 -14 80 -19
334 -7 387 l8 32 -48 -1 c-26 0 -59 -5 -73 -10z"/>
<path d="M4235 14786 c-20 -30 -27 -18 84 -148 113 -133 183 -229 231 -320 87
-165 95 -169 185 -75 83 87 93 108 73 150 -24 50 -120 149 -233 243 -130 106
-227 166 -281 172 -37 4 -44 1 -59 -22z"/>
<path d="M8516 13662 c-3 -9 -10 -57 -16 -107 -12 -105 -27 -167 -64 -252 -34
-82 -56 -175 -56 -245 l0 -56 53 -7 c83 -10 147 -26 220 -56 37 -16 75 -26 85
-23 13 5 14 4 3 -4 -10 -7 -8 -13 10 -26 28 -19 43 -21 33 -3 -4 7 -3 9 2 4 5
-5 9 -12 9 -17 0 -17 143 -158 152 -149 6 6 10 4 10 -5 0 -8 -4 -13 -9 -10
-15 9 -8 -13 11 -37 10 -13 21 -34 25 -47 4 -12 12 -20 17 -16 6 3 8 13 5 21
-3 8 -2 11 3 8 5 -3 12 -1 16 5 3 5 12 10 18 10 7 0 4 -5 -6 -11 -12 -7 -16
-17 -12 -32 5 -18 4 -19 -5 -7 -14 20 -3 -32 18 -80 17 -38 19 -44 21 -62 2
-7 7 -4 12 7 7 15 8 11 4 -16 -7 -45 3 -55 26 -27 15 16 19 18 19 5 0 -8 -6
-18 -12 -20 -8 -3 -6 -6 5 -6 9 -1 17 5 17 12 0 9 3 8 9 -2 13 -20 33 -3 25
21 -4 14 -2 18 5 14 28 -18 -11 67 -46 101 -15 14 -22 23 -15 19 18 -11 14 6
-9 34 -17 20 -20 21 -14 5 3 -11 3 -16 -2 -12 -4 5 -8 22 -9 38 -1 22 6 34 27
50 16 11 27 24 24 29 -3 5 0 12 6 16 8 4 9 3 5 -4 -12 -19 5 -14 40 13 40 30
46 31 62 5 7 -12 18 -18 24 -14 7 5 8 3 3 -5 -4 -8 1 -24 12 -39 10 -15 32
-53 48 -84 23 -44 32 -54 42 -46 8 6 16 8 20 4 3 -3 2 -6 -4 -6 -20 0 -23 -31
-6 -63 9 -18 16 -38 14 -46 -1 -8 2 -10 10 -5 9 5 11 1 6 -15 -3 -14 0 -24 9
-28 8 -3 14 -12 14 -20 0 -8 -4 -11 -10 -8 -13 8 -13 4 4 -36 13 -31 14 -28
14 57 1 59 -2 82 -8 69 -8 -19 -9 -19 -9 2 -1 13 -6 22 -12 20 -6 -1 -14 5
-16 13 -4 13 -3 13 6 0 9 -13 11 -13 11 3 0 9 5 17 11 17 6 0 9 -7 5 -15 -3
-8 -2 -15 3 -15 5 0 9 59 10 132 1 72 3 133 4 134 2 2 159 6 182 5 6 -1 10
-83 10 -226 -1 -123 1 -222 4 -219 6 5 10 27 14 74 2 19 9 45 15 58 7 12 10
28 6 34 -4 7 -3 8 4 4 7 -4 12 -1 12 6 0 7 14 42 30 76 17 35 27 68 24 73 -3
5 0 8 7 7 8 -2 14 7 15 20 1 12 5 26 9 30 5 4 5 -1 2 -10 -11 -31 0 -20 32 32
17 28 35 50 40 50 4 0 25 -13 46 -30 43 -34 40 -33 67 -19 15 8 23 8 32 -1 8
-8 6 -9 -8 -4 -13 5 -17 4 -12 -4 5 -8 1 -10 -11 -6 -11 3 -7 -4 11 -20 25
-20 27 -27 17 -40 -10 -12 -9 -21 4 -46 9 -17 14 -39 12 -48 -3 -11 -5 -9 -6
7 -1 19 -4 21 -15 12 -19 -16 -32 5 -15 25 6 8 10 17 7 19 -3 3 -17 -13 -32
-36 -28 -42 -28 -68 0 -33 15 18 15 18 9 -3 -7 -24 9 -33 18 -10 4 9 6 9 6 0
1 -17 -45 -46 -61 -40 -8 4 -6 6 5 6 20 1 24 21 3 21 -14 0 -71 -108 -61 -118
3 -3 5 0 5 7 0 7 5 9 11 5 6 -3 15 0 20 7 7 12 9 11 9 -1 0 -13 1 -13 10 0 13
20 13 33 0 25 -12 -8 -13 5 -1 23 11 18 24 -13 16 -39 -5 -13 -1 -19 10 -19 9
0 14 4 10 9 -3 5 -1 12 5 16 5 3 10 -2 10 -11 0 -16 1 -16 15 2 19 25 19 35
-1 27 -12 -4 -15 -2 -12 8 3 8 12 13 21 13 18 -2 43 58 32 76 -3 5 -1 18 5 27
9 16 10 15 5 -4 -10 -36 1 -27 24 19 11 23 17 46 14 51 -3 6 -1 7 5 3 6 -4 18
6 26 23 14 27 14 31 0 45 -8 9 -12 16 -7 16 5 0 14 -5 19 -10 8 -8 19 1 37 28
15 21 43 53 62 72 19 18 31 38 28 43 -4 6 -1 7 6 2 7 -4 22 2 36 15 50 47 197
103 315 121 l80 11 0 57 c0 79 -22 172 -64 273 -33 80 -43 125 -64 283 -4 33
-12 59 -17 58 -6 -2 -35 -12 -65 -22 -30 -11 -105 -29 -165 -41 -131 -26 -248
-61 -301 -90 -21 -12 -89 -61 -152 -109 -158 -120 -199 -147 -260 -171 -84
-32 -136 -10 -345 146 -76 57 -158 116 -182 130 -49 28 -167 68 -235 79 -77
12 -254 56 -282 71 -24 12 -27 12 -32 -4z m794 -366 c-7 -7 -13 -7 -20 0 -6 6
-3 10 10 10 13 0 16 -4 10 -10z m304 -139 c135 -77 76 -287 -81 -287 -87 0
-153 67 -153 154 0 124 126 195 234 133z m-548 -82 c20 -8 41 -12 48 -8 6 3 8
3 4 -1 -3 -4 5 -24 18 -43 16 -24 24 -50 24 -80 0 -98 -55 -157 -150 -160 -47
-1 -60 3 -93 29 -21 17 -43 43 -49 57 -11 27 -19 159 -8 142 3 -6 14 3 25 19
36 54 115 73 181 45z m1045 5 c43 -12 89 -71 99 -128 14 -78 -64 -172 -143
-173 -56 0 -71 5 -105 36 -45 40 -65 89 -57 140 16 102 102 154 206 125z
m-917 -314 c-10 -8 -21 -12 -24 -10 -5 6 21 24 34 24 6 0 1 -6 -10 -14z m933
-38 c-3 -8 -6 -5 -6 6 -1 11 2 17 5 13 3 -3 4 -12 1 -19z m-343 -16 c3 -5 -1
-9 -9 -9 -8 0 -12 4 -9 9 3 4 7 8 9 8 2 0 6 -4 9 -8z m-759 -22 c3 -5 1 -10
-4 -10 -6 0 -11 5 -11 10 0 6 2 10 4 10 3 0 8 -4 11 -10z m-35 -10 c0 -5 -2
-10 -4 -10 -3 0 -8 5 -11 10 -3 6 -1 10 4 10 6 0 11 -4 11 -10z m360 -84 c0
-12 -5 -7 -19 24 -11 24 -11 24 3 6 9 -11 16 -24 16 -30z m371 1 c-10 -9 -11
-8 -5 6 3 10 9 15 12 12 3 -3 0 -11 -7 -18z m-660 -30 c-10 -9 -11 -8 -5 6 3
10 9 15 12 12 3 -3 0 -11 -7 -18z m-24 -9 c-3 -8 -6 -5 -6 6 -1 11 2 17 5 13
3 -3 4 -12 1 -19z m63 -18 c12 -8 11 -10 -8 -10 -20 0 -21 -3 -12 -20 6 -11 7
-20 1 -20 -13 0 -22 27 -15 45 7 17 13 18 34 5z m593 -15 c-3 -9 -8 -14 -10
-11 -3 3 -2 9 2 15 9 16 15 13 8 -4z m309 -23 c4 -12 -1 -18 -13 -19 -16 -2
-17 1 -6 18 14 23 14 23 19 1z m-883 -37 c0 -5 -4 -3 -9 5 -5 8 -9 22 -9 30 0
16 17 -16 18 -35z m41 10 c0 -8 -2 -15 -4 -15 -2 0 -6 7 -10 15 -3 8 -1 15 4
15 6 0 10 -7 10 -15z m-10 -38 c0 -5 -4 -5 -10 -2 -5 3 -10 14 -10 23 0 15 2
15 10 2 5 -8 10 -19 10 -23z m507 11 c-3 -8 -6 -5 -6 6 -1 11 2 17 5 13 3 -3
4 -12 1 -19z"/>
<path d="M1405 13354 c-44 -23 -66 -45 -81 -81 -17 -38 -15 -44 55 -158 30
-49 67 -118 83 -152 30 -62 89 -281 81 -296 -8 -13 -63 26 -124 87 -57 58 -59
59 -111 58 -43 -2 -57 -7 -75 -27 -27 -31 -43 -85 -43 -146 0 -74 22 -93 158
-135 64 -19 123 -38 131 -40 11 -3 12 -18 7 -69 -6 -64 -6 -64 23 -80 17 -8
36 -15 44 -15 22 0 44 31 59 84 8 28 20 52 25 53 6 2 24 -9 41 -24 49 -47 203
-177 228 -193 23 -14 24 -21 25 -115 1 -124 15 -181 51 -208 25 -19 30 -19 65
-6 21 8 44 27 53 41 13 25 13 36 -7 120 -23 95 -43 384 -26 377 14 -7 233
-131 233 -133 0 -1 6 -52 14 -112 8 -60 22 -204 31 -319 21 -277 47 -449 85
-567 31 -97 31 -97 68 -103 20 -3 46 -11 56 -17 16 -9 24 -6 42 15 27 32 64
127 64 166 0 15 -21 70 -46 122 -86 175 -145 365 -185 593 -22 127 -24 162 -6
169 6 2 85 -23 173 -56 l161 -61 0 -75 c0 -44 9 -114 22 -164 11 -49 21 -108
21 -133 0 -57 30 -80 92 -70 129 21 160 109 71 201 -35 36 -62 111 -63 173 0
33 25 29 142 -24 247 -111 310 -153 288 -194 -20 -38 -13 -50 33 -50 50 0 125
40 187 99 34 32 40 44 35 63 -21 68 -116 110 -429 193 -137 36 -257 70 -268
76 -22 12 -24 62 -3 139 8 30 15 61 15 68 0 24 -40 52 -75 52 -58 0 -69 -28
-75 -194 0 -19 -90 8 -190 58 -154 78 -170 89 -178 116 -3 14 -7 113 -7 220 0
190 1 197 28 262 36 89 35 126 -6 180 -47 61 -65 57 -95 -22 -24 -65 -24 -67
-20 -347 3 -227 2 -283 -9 -283 -16 0 -37 33 -143 225 l-83 150 -3 95 c-3 139
-49 332 -79 333 -5 0 -23 -24 -38 -55 l-28 -56 35 -104 c38 -112 44 -148 23
-148 -23 0 -50 27 -77 75 -14 27 -37 57 -51 67 -24 18 -28 19 -62 4 -57 -23
-51 -56 30 -163 36 -48 86 -112 111 -141 24 -29 42 -56 38 -59 -3 -3 -29 -8
-57 -11 -51 -5 -51 -5 -45 -35 3 -17 26 -62 50 -101 48 -78 69 -156 42 -156
-9 0 -56 38 -106 85 -51 49 -109 94 -134 105 -52 22 -51 19 -62 240 -4 91 -14
164 -29 225 -13 50 -27 130 -31 179 l-7 88 -45 29 c-52 33 -74 35 -117 13z"/>
<path d="M17164 13078 c-50 -99 -218 -299 -276 -329 -40 -20 -64 -24 -72 -11
-2 4 9 45 25 91 16 45 29 96 29 112 0 41 -27 102 -42 97 -7 -3 -32 -43 -56
-90 -43 -88 -64 -114 -146 -181 -25 -21 -46 -44 -46 -52 0 -21 91 -46 241 -65
105 -13 145 -22 160 -36 26 -23 40 -59 33 -79 -8 -20 -78 -20 -134 0 -53 19
-92 11 -88 -19 2 -17 23 -27 120 -59 119 -38 145 -57 132 -91 -4 -10 -18 -16
-35 -16 -37 0 -99 -25 -99 -40 0 -19 49 -30 130 -30 56 0 90 -5 121 -20 50
-22 122 -26 159 -7 17 9 30 29 42 66 19 59 34 81 54 81 19 0 203 -170 221
-204 30 -57 9 -59 -277 -32 -102 10 -233 20 -293 23 l-107 6 -78 69 c-53 47
-107 84 -171 115 -76 37 -110 62 -170 122 -90 89 -118 111 -148 111 -25 0 -43
-24 -36 -50 2 -9 20 -25 40 -35 19 -11 84 -67 142 -125 59 -59 142 -130 185
-158 l78 -52 -29 -12 c-72 -30 -222 1 -327 68 -59 37 -77 44 -121 44 -43 0
-62 7 -116 40 -90 56 -206 115 -256 130 -62 19 -144 89 -196 168 -26 39 -51
73 -57 77 -14 9 -74 -27 -78 -47 -4 -22 53 -138 90 -182 33 -40 99 -87 233
-166 108 -64 175 -124 175 -155 0 -17 -18 -36 -67 -72 -112 -81 -139 -94 -225
-109 -44 -8 -87 -19 -95 -25 -21 -18 -42 7 -88 107 -24 50 -48 95 -55 99 -17
11 -42 -24 -36 -49 5 -20 45 -249 53 -304 6 -46 54 -67 132 -57 82 10 379 169
487 262 28 23 60 43 71 43 11 0 40 -18 64 -39 55 -49 47 -60 -52 -70 -65 -6
-71 -8 -54 -19 83 -52 281 -162 291 -162 18 0 51 46 59 80 13 61 -50 200 -90
200 -16 0 -95 89 -95 108 0 22 69 13 193 -28 131 -42 195 -77 269 -146 62 -58
106 -78 149 -70 63 12 66 17 46 90 -12 47 -14 72 -7 90 l10 26 131 -5 c138 -5
127 -3 369 -90 130 -48 226 -34 270 38 43 70 38 138 -12 165 -18 9 -81 50
-141 90 -60 40 -132 84 -162 96 -29 13 -56 29 -60 36 -4 7 -10 44 -12 82 -5
84 9 108 67 108 36 0 177 -44 303 -95 45 -18 78 -25 100 -22 62 10 110 26 118
39 16 24 11 181 -7 206 -17 24 -58 30 -71 9 -4 -7 -42 -30 -84 -50 -70 -34
-82 -37 -166 -37 -85 0 -220 18 -306 41 -33 9 -42 17 -62 62 -22 50 -55 91
-103 129 -25 20 -28 52 -7 88 31 54 13 130 -30 130 -20 0 -30 -11 -51 -52z
m64 -233 c27 -56 27 -67 1 -83 -17 -11 -25 -10 -54 8 -53 33 -59 85 -12 108
36 17 42 14 65 -33z m-102 -100 c4 -16 0 -34 -10 -50 -14 -21 -24 -25 -67 -25
-51 0 -51 0 -45 28 15 63 109 100 122 47z m120 -63 c57 -42 67 -57 59 -91 -6
-28 -7 -29 -33 -15 -15 8 -34 14 -43 14 -9 0 -28 11 -44 25 -21 21 -26 31 -20
53 6 24 21 41 36 42 3 0 24 -13 45 -28z m56 -249 c32 -28 23 -56 -25 -75 -49
-21 -100 -23 -146 -7 -26 9 -30 15 -25 33 11 37 35 55 78 59 86 8 100 7 118
-10z"/>
<path d="M8245 12810 c-120 -21 -119 -21 -104 -31 10 -8 9 -9 -7 -4 -24 6 -96
-23 -88 -37 3 -4 -1 -5 -9 -2 -25 9 -129 -103 -175 -188 -41 -76 -42 -79 -27
-108 9 -17 19 -29 23 -27 4 1 20 9 35 17 29 14 37 11 51 -25 5 -13 42 10 39
24 -2 6 4 11 13 11 8 0 12 -4 9 -10 -10 -16 777 -14 794 3 11 10 12 7 7 -15
-6 -27 6 -39 19 -18 3 6 13 10 21 10 8 0 13 -4 10 -9 -3 -5 1 -11 9 -15 19 -7
20 -10 -16 69 -24 53 -33 65 -41 54 -8 -11 -9 -10 -4 4 8 25 -11 58 -29 51 -8
-4 -15 -1 -15 6 0 6 5 8 10 5 18 -11 10 12 -10 30 -20 18 -21 18 -14 -1 4 -14
4 -16 -4 -5 -6 8 -8 19 -6 26 7 16 -22 39 -37 29 -7 -4 -9 -3 -6 3 9 14 -29
47 -44 37 -8 -4 -10 -3 -5 4 9 15 -68 65 -141 92 -61 23 -187 33 -258 20z
m269 -39 c4 -5 -3 -7 -14 -4 -23 6 -26 13 -6 13 8 0 17 -4 20 -9z m161 -101
c3 -5 1 -10 -4 -10 -6 0 -11 5 -11 10 0 6 2 10 4 10 3 0 8 -4 11 -10z m-4 -28
c-7 -2 -18 1 -23 6 -8 8 -4 9 13 5 13 -4 18 -8 10 -11z m-751 -52 c0 -5 -2
-10 -4 -10 -3 0 -8 5 -11 10 -3 6 -1 10 4 10 6 0 11 -4 11 -10z m-10 -30 c8
-15 7 -18 -2 -15 -7 2 -21 -7 -32 -21 -15 -22 -16 -28 -5 -35 8 -5 10 -9 4 -9
-31 0 -35 17 -10 46 14 16 25 35 25 42 0 18 8 15 20 -8z m1 -73 c-10 -9 -11
-8 -5 6 3 10 9 15 12 12 3 -3 0 -11 -7 -18z m918 -40 c-1 -18 -3 -24 -6 -14
-2 9 -9 17 -14 17 -5 0 -9 5 -9 11 0 5 5 7 12 3 8 -5 9 -2 5 10 -4 10 -3 15 3
11 6 -3 9 -21 9 -38z"/>
<path d="M10620 12809 c-88 -15 -222 -97 -308 -189 -39 -41 -74 -104 -64 -115
4 -5 2 -5 -4 -2 -7 4 -18 -12 -28 -41 -10 -26 -21 -55 -27 -64 -5 -10 -5 -18
0 -18 4 0 16 17 24 38 9 20 14 28 12 16 -5 -19 -1 -20 42 -19 26 1 49 7 51 14
5 15 32 14 51 -1 12 -10 107 -12 426 -8 l410 5 0 27 c1 15 4 30 7 34 6 6 4
-24 -8 -98 -4 -27 -3 -38 6 -38 9 0 11 10 6 30 -3 17 -2 29 3 26 5 -3 21 0 35
8 22 11 24 15 12 25 -10 8 -16 9 -19 1 -3 -6 -4 -5 -3 2 4 15 -43 109 -58 120
-6 4 -7 8 -3 8 12 0 -46 81 -85 116 -36 35 -111 83 -137 90 -9 2 -40 10 -69
18 -70 20 -204 27 -272 15z m-86 -54 c-10 -8 -23 -14 -29 -14 -5 0 -1 6 9 14
11 8 24 15 30 15 5 0 1 -7 -10 -15z m393 -11 c-3 -3 -12 -4 -19 -1 -8 3 -5 6
6 6 11 1 17 -2 13 -5z m-527 -68 c0 -2 -8 -10 -17 -17 -16 -13 -17 -12 -4 4
13 16 21 21 21 13z m730 -31 c11 -13 10 -14 -4 -9 -9 3 -16 10 -16 15 0 13 6
11 20 -6z m-814 -83 c1 -20 0 -28 -3 -17 -3 11 -10 23 -17 28 -8 5 -7 10 4 17
8 5 15 10 15 10 0 0 1 -17 1 -38z m837 21 c-4 -11 -3 -14 5 -9 7 4 12 3 12 -3
0 -5 -9 -9 -19 -8 -16 1 -18 5 -10 19 12 23 20 24 12 1z m-848 -72 c3 -5 1
-12 -5 -16 -5 -3 -10 1 -10 9 0 18 6 21 15 7z"/>
<path d="M9977 12583 c-4 -3 -7 -11 -7 -17 0 -6 5 -5 12 2 6 6 9 14 7 17 -3 3
-9 2 -12 -2z"/>
<path d="M7787 12429 c-15 -17 -27 -32 -27 -33 0 -1 10 -3 22 -3 13 -1 18 1
12 5 -6 4 -3 14 10 26 16 16 18 16 13 3 -3 -9 -2 -19 3 -22 12 -7 13 25 2 42
-6 9 -16 4 -35 -18z"/>
<path d="M9177 12416 c-3 -8 0 -17 8 -19 7 -3 12 0 11 8 -3 22 -13 27 -19 11z"/>
<path d="M8740 12396 c0 -10 9 -16 21 -16 24 0 21 23 -4 28 -10 2 -17 -3 -17
-12z"/>
<path d="M11288 12395 c7 -13 7 -27 1 -38 -13 -23 -5 -34 26 -34 21 0 23 2 14
13 -9 11 -15 11 -25 3 -10 -8 -14 -8 -14 -1 0 22 21 23 50 2 20 -14 27 -26 23
-38 -5 -14 -4 -15 8 -4 11 10 4 21 -40 65 -29 28 -49 43 -43 32z"/>
<path d="M10217 12393 c-12 -12 -7 -22 8 -17 8 4 15 10 15 15 0 11 -14 12 -23
2z"/>
<path d="M11780 12392 c0 -5 5 -13 12 -20 16 -16 29 -15 22 2 -6 16 -34 30
-34 18z"/>
<path d="M8787 12373 c-4 -3 -7 -13 -7 -22 1 -15 2 -15 13 0 7 9 18 14 26 11
8 -3 11 0 7 7 -8 12 -29 15 -39 4z"/>
<path d="M8850 12371 c12 -8 9 -12 -18 -17 -18 -4 -31 -9 -28 -11 6 -7 -17
-32 -25 -27 -3 2 -19 -11 -35 -29 -29 -31 -29 -32 -1 -8 15 14 27 21 27 16 0
-5 10 1 23 12 12 12 40 30 62 42 22 12 35 21 28 21 -6 0 -20 3 -30 6 -15 5
-15 4 -3 -5z"/>
<path d="M11232 12360 c0 -14 2 -19 5 -12 2 6 2 18 0 25 -3 6 -5 1 -5 -13z"/>
<path d="M10187 12360 c19 -16 83 -51 83 -45 0 13 -28 34 -35 27 -5 -4 -6 0
-3 9 5 12 -1 16 -23 16 -16 0 -26 -3 -22 -7z"/>
<path d="M11716 12354 c-8 -21 -8 -21 14 -27 15 -4 20 0 20 13 0 23 -27 34
-34 14z"/>
<path d="M7710 12340 c-6 -12 -2 -15 19 -15 19 -1 27 5 28 16 2 22 -35 21 -47
-1z m40 4 c0 -8 -19 -13 -24 -6 -3 5 1 9 9 9 8 0 15 -2 15 -3z"/>
<path d="M4456 12313 c-9 -21 -21 -46 -27 -55 -5 -10 -5 -18 -1 -18 11 0 57
98 50 105 -3 3 -13 -11 -22 -32z"/>
<path d="M7270 12330 c0 -5 5 -10 10 -10 6 0 10 5 10 10 0 6 -4 10 -10 10 -5
0 -10 -4 -10 -10z"/>
<path d="M8705 12330 c-3 -6 1 -7 9 -4 18 7 21 14 7 14 -6 0 -13 -4 -16 -10z"/>
<path d="M10345 12331 c-6 -11 13 -26 22 -17 4 3 1 6 -6 6 -7 0 -9 5 -6 10 3
6 4 10 1 10 -3 0 -7 -4 -11 -9z"/>
<path d="M11689 12311 c14 -10 30 -17 37 -14 8 3 13 -3 13 -14 1 -36 4 -53 10
-48 8 8 8 74 0 69 -4 -2 -10 2 -12 8 -4 10 -7 10 -15 0 -7 -10 -11 -10 -22 3
-7 8 -18 15 -24 15 -6 0 0 -9 13 -19z"/>
<path d="M7291 12311 c-8 -5 -9 -11 -3 -15 5 -3 12 1 16 9 6 17 6 18 -13 6z"/>
<path d="M10285 12310 c-3 -4 7 -19 22 -32 16 -13 49 -47 76 -76 26 -28 47
-45 47 -38 0 8 -10 21 -22 30 -16 12 -19 18 -10 22 6 3 12 11 12 17 0 8 -4 7
-12 -1 -18 -18 -30 -14 -23 7 3 11 0 23 -6 27 -9 5 -10 2 -6 -9 9 -23 3 -21
-30 9 l-28 26 29 -8 c28 -7 29 -7 10 12 -20 21 -50 28 -59 14z"/>
<path d="M7644 12277 c-16 -17 -25 -29 -20 -25 5 4 18 2 30 -4 19 -10 20 -10
6 6 -13 16 -12 20 5 32 10 8 16 16 14 19 -3 3 -19 -10 -35 -28z"/>
<path d="M11407 12279 c12 -12 24 -21 27 -18 2 2 -8 13 -22 23 l-27 19 22 -24z"/>
<path d="M7790 12230 l-25 -8 25 -1 c14 0 32 4 40 9 13 9 13 10 0 9 -8 -1 -26
-5 -40 -9z"/>
<path d="M8650 12230 c-16 -10 -8 -23 16 -26 11 -2 12 1 5 10 -6 7 -8 16 -4
19 9 10 0 8 -17 -3z"/>
<path d="M8690 12224 c0 -8 5 -12 10 -9 6 4 8 11 5 16 -9 14 -15 11 -15 -7z"/>
<path d="M11220 12232 c0 -11 80 -31 97 -25 14 6 8 23 -8 23 -6 0 -7 -4 -4
-10 8 -13 5 -13 -44 5 -22 8 -41 11 -41 7z"/>
<path d="M10450 12220 c0 -5 5 -10 10 -10 6 0 10 5 10 10 0 6 -4 10 -10 10 -5
0 -10 -4 -10 -10z"/>
<path d="M9884 12204 c-25 -12 -26 -13 -4 -8 14 3 35 5 48 5 27 -1 29 5 4 11
-11 3 -32 -1 -48 -8z"/>
<path d="M10038 12208 c5 -5 16 -8 23 -6 8 3 3 7 -10 11 -17 4 -21 3 -13 -5z"/>
<path d="M7310 12204 c0 -6 7 -19 16 -30 14 -18 14 -18 3 6 -14 31 -19 36 -19
24z"/>
<path d="M7776 12202 c12 -11 64 -33 64 -27 0 5 -56 35 -67 35 -4 0 -3 -4 3
-8z"/>
<path d="M9200 12196 c0 -3 14 -12 30 -21 17 -9 30 -13 30 -11 0 3 -13 12 -30
21 -16 9 -30 13 -30 11z"/>
<path d="M10080 12196 c0 -2 15 -9 33 -15 29 -10 30 -9 13 4 -18 14 -46 20
-46 11z"/>
<path d="M11240 12190 c-8 -5 -10 -10 -5 -10 6 0 17 5 25 10 8 5 11 10 5 10
-5 0 -17 -5 -25 -10z"/>
<path d="M11731 12177 c-13 -21 -12 -21 5 -5 10 10 16 20 13 22 -3 3 -11 -5
-18 -17z"/>
<path d="M8948 12183 c7 -3 16 -2 19 1 4 3 -2 6 -13 5 -11 0 -14 -3 -6 -6z"/>
<path d="M9908 12183 c7 -3 16 -2 19 1 4 3 -2 6 -13 5 -11 0 -14 -3 -6 -6z"/>
<path d="M10020 12180 c0 -6 7 -10 15 -10 8 0 15 2 15 4 0 2 -7 6 -15 10 -8 3
-15 1 -15 -4z"/>
<path d="M8910 12170 c-9 -6 -10 -10 -3 -10 6 0 15 5 18 10 8 12 4 12 -15 0z"/>
<path d="M7861 12156 c10 -9 69 -36 69 -32 0 6 -55 36 -66 36 -4 0 -5 -2 -3
-4z"/>
<path d="M7926 12150 c3 -3 16 -5 29 -5 14 -1 22 2 19 5 -3 3 -16 5 -29 5 -14
1 -22 -2 -19 -5z"/>
<path d="M8620 12150 c-8 -5 -12 -12 -9 -15 4 -3 12 1 19 10 14 17 11 19 -10
5z"/>
<path d="M7363 12135 c0 -7 6 -11 14 -8 7 3 13 6 13 8 0 2 -6 5 -13 8 -8 3
-14 -1 -14 -8z"/>
<path d="M11155 12140 c-3 -6 1 -7 9 -4 18 7 21 14 7 14 -6 0 -13 -4 -16 -10z"/>
<path d="M11695 12140 c-3 -6 1 -7 9 -4 18 7 21 14 7 14 -6 0 -13 -4 -16 -10z"/>
<path d="M8856 12131 c-3 -4 1 -17 10 -27 14 -18 15 -18 5 2 -6 12 -7 24 -4
28 3 3 4 6 0 6 -3 0 -8 -4 -11 -9z"/>
<path d="M10193 12126 c9 -7 17 -18 17 -23 0 -6 10 -13 21 -16 19 -5 19 -3 -7
24 -15 16 -33 29 -38 29 -6 0 -3 -7 7 -14z"/>
<path d="M7400 12126 c0 -2 8 -10 18 -17 15 -13 16 -12 3 4 -13 16 -21 21 -21
13z"/>
<path d="M9704 12114 c-18 -14 -18 -15 4 -4 12 6 22 13 22 15 0 8 -5 6 -26
-11z"/>
<path d="M11640 12120 c-8 -5 -10 -10 -5 -10 6 0 17 5 25 10 8 5 11 10 5 10
-5 0 -17 -5 -25 -10z"/>
<path d="M7947 12109 c7 -7 15 -10 18 -7 3 3 -2 9 -12 12 -14 6 -15 5 -6 -5z"/>
<path d="M8586 12104 c-9 -24 -2 -26 12 -4 7 11 8 20 3 20 -5 0 -12 -7 -15
-16z"/>
<path d="M9350 12116 c0 -3 9 -10 20 -16 11 -6 20 -8 20 -6 0 3 -9 10 -20 16
-11 6 -20 8 -20 6z"/>
<path d="M9283 12095 c0 -7 6 -11 14 -8 7 3 13 6 13 8 0 2 -6 5 -13 8 -8 3
-14 -1 -14 -8z"/>
<path d="M7378 12093 c7 -3 16 -2 19 1 4 3 -2 6 -13 5 -11 0 -14 -3 -6 -6z"/>
<path d="M9659 12083 c-13 -16 -12 -17 4 -4 16 13 21 21 13 21 -2 0 -10 -8
-17 -17z"/>
<path d="M10471 12083 c-1 -17 16 -25 25 -12 4 7 3 9 -4 5 -5 -3 -13 0 -15 6
-4 9 -6 10 -6 1z"/>
<path d="M11050 12070 c-9 -6 -10 -10 -3 -10 6 0 15 5 18 10 8 12 4 12 -15 0z"/>
<path d="M9415 12060 c3 -5 8 -10 11 -10 2 0 4 5 4 10 0 6 -5 10 -11 10 -5 0
-7 -4 -4 -10z"/>
<path d="M10251 12063 c-1 -17 16 -25 25 -12 4 7 3 9 -4 5 -5 -3 -13 0 -15 6
-4 9 -6 10 -6 1z"/>
<path d="M11470 12050 c-9 -6 -10 -10 -3 -10 6 0 15 5 18 10 8 12 4 12 -15 0z"/>
<path d="M7630 12030 c8 -5 20 -10 25 -10 6 0 3 5 -5 10 -8 5 -19 10 -25 10
-5 0 -3 -5 5 -10z"/>
<path d="M8050 12036 c0 -2 8 -10 18 -17 15 -13 16 -12 3 4 -13 16 -21 21 -21
13z"/>
<path d="M10280 12031 c0 -6 4 -13 10 -16 6 -3 7 1 4 9 -7 18 -14 21 -14 7z"/>
<path d="M10995 12029 c-4 -6 -14 -8 -24 -4 -13 5 -14 4 -3 -6 10 -11 15 -10
29 4 10 9 14 17 11 17 -4 0 -10 -5 -13 -11z"/>
<path d="M9445 12010 c-3 -6 1 -7 9 -4 18 7 21 14 7 14 -6 0 -13 -4 -16 -10z"/>
<path d="M8130 11986 c0 -2 7 -7 16 -10 8 -3 12 -2 9 4 -6 10 -25 14 -25 6z"/>
<path d="M8508 11983 c7 -3 16 -2 19 1 4 3 -2 6 -13 5 -11 0 -14 -3 -6 -6z"/>
<path d="M10880 11970 c0 -5 7 -7 15 -4 8 4 15 8 15 10 0 2 -7 4 -15 4 -8 0
-15 -4 -15 -10z"/>
<path d="M11260 11950 c-9 -6 -10 -10 -3 -10 6 0 15 5 18 10 8 12 4 12 -15 0z"/>
<path d="M16550 8852 c0 -22 -3 -54 -6 -71 l-6 -31 281 -137 c154 -76 281
-140 281 -143 0 -7 -153 -38 -424 -86 -104 -18 -191 -35 -193 -38 -3 -3 -11
-34 -18 -70 -9 -52 -9 -66 0 -66 7 0 129 25 271 55 143 30 320 66 394 81 l136
28 327 -58 c180 -33 330 -56 333 -54 6 6 26 129 22 133 -2 1 -155 30 -341 63
l-339 61 -151 79 c-84 44 -245 128 -359 186 l-208 108 0 -40z"/>
<path d="M2184 8850 c-129 -41 -234 -129 -434 -365 -187 -220 -195 -226 -302
-226 -111 -1 -163 56 -155 170 3 41 12 73 24 90 25 34 92 68 153 76 56 8 57
11 44 107 l-6 46 -61 -14 c-127 -30 -199 -80 -241 -167 -33 -69 -41 -131 -26
-216 20 -120 91 -196 211 -227 55 -15 74 -15 136 -5 114 20 129 33 333 291
120 151 242 272 318 313 98 53 190 46 264 -21 50 -45 66 -77 73 -144 10 -86
-32 -136 -133 -160 -48 -12 -52 -15 -52 -43 0 -16 3 -47 7 -69 l6 -38 41 6
c111 17 222 107 247 200 18 66 5 188 -26 251 -28 59 -99 128 -154 151 -49 21
-192 17 -267 -6z"/>
<path d="M2310 8154 c-136 -15 -228 -29 -310 -45 -340 -69 -600 -201 -672
-342 -39 -77 -20 -217 38 -285 68 -80 179 -103 394 -83 301 29 558 97 787 208
149 72 216 159 216 280 -1 114 -68 212 -172 248 -45 16 -210 27 -281 19z m191
-135 c39 -9 64 -22 97 -54 41 -38 44 -44 38 -77 -14 -77 -90 -147 -206 -193
-103 -40 -345 -104 -515 -137 -216 -41 -348 -44 -412 -10 -52 27 -77 63 -76
108 3 107 140 192 438 274 320 88 515 115 636 89z"/>
<path d="M16597 8145 c-55 -15 -81 -31 -126 -75 -74 -74 -90 -167 -50 -295 17
-55 31 -78 73 -121 135 -134 516 -252 875 -270 258 -14 373 37 426 185 23 67
19 156 -10 219 l-24 52 27 -6 c15 -3 34 -8 44 -10 13 -4 19 6 27 47 6 29 10
54 7 56 -5 6 -667 153 -687 153 -14 0 -22 -26 -43 -138 -14 -76 -26 -145 -26
-154 0 -10 15 -19 44 -27 73 -18 72 -18 85 64 7 41 16 77 20 79 16 10 289 -56
340 -82 73 -37 96 -70 95 -135 -1 -72 -25 -114 -82 -140 -42 -20 -63 -22 -212
-21 -132 0 -186 5 -270 23 -334 71 -536 161 -576 258 -20 46 -17 112 5 149 34
56 130 77 242 52 8 -2 17 21 24 62 7 36 11 67 9 69 -7 8 -92 20 -139 20 -27
-1 -72 -7 -98 -14z"/>
<path d="M2750 7554 c-63 -21 -524 -172 -918 -300 -121 -39 -155 -58 -212
-120 -67 -73 -85 -122 -85 -234 0 -84 3 -101 27 -146 76 -145 216 -197 373
-141 39 13 205 72 370 130 165 58 383 135 485 172 102 37 195 69 208 72 27 7
28 17 0 88 -16 43 -25 54 -37 50 -9 -4 -160 -58 -336 -120 -176 -62 -419 -148
-540 -191 -251 -89 -297 -96 -358 -54 -51 34 -81 98 -73 152 15 91 63 148 155
182 86 33 668 232 886 304 94 31 171 57 172 58 2 0 -7 28 -18 62 -11 34 -22
62 -22 61 -1 0 -36 -12 -77 -25z"/>
<path d="M16365 7460 c-114 -45 -169 -125 -169 -245 0 -60 5 -81 35 -145 46
-97 74 -128 167 -191 84 -56 329 -179 457 -228 105 -41 256 -78 347 -87 151
-13 295 46 346 141 68 129 -7 332 -167 449 -203 149 -645 312 -871 322 -78 4
-104 1 -145 -16z m384 -169 c298 -101 490 -188 578 -263 81 -68 114 -116 120
-171 10 -83 -36 -128 -151 -147 -134 -22 -371 47 -693 201 -171 82 -263 173
-278 275 -8 53 20 102 75 131 35 18 59 23 123 23 70 0 100 -6 226 -49z"/>
<path d="M2993 6926 c-29 -11 -53 -24 -53 -27 0 -4 18 -46 40 -94 22 -49 39
-89 38 -91 -2 -1 -275 -111 -607 -243 -333 -132 -609 -245 -613 -249 -8 -8 25
-108 41 -125 11 -11 73 13 676 261 121 49 291 120 378 156 87 36 164 66 171
66 7 0 32 -43 56 -95 24 -52 44 -95 45 -95 1 0 27 10 58 23 l56 23 -111 249
c-61 138 -113 253 -117 256 -3 3 -30 -3 -58 -15z"/>
<path d="M15991 6734 c-11 -31 -21 -61 -21 -67 1 -7 126 -84 278 -171 152 -88
431 -249 620 -359 201 -117 347 -196 352 -191 10 10 212 476 208 479 -43 28
-102 55 -108 49 -5 -5 -41 -85 -81 -179 -40 -93 -73 -171 -74 -173 -2 -2 -40
19 -86 46 -46 27 -295 172 -554 322 -258 150 -480 278 -491 286 -21 12 -23 10
-43 -42z"/>
<path d="M15927 6446 c-183 -66 -247 -313 -126 -491 36 -53 194 -204 299 -286
192 -149 463 -310 581 -345 180 -54 339 79 343 286 1 67 -3 84 -32 142 -112
229 -789 710 -994 708 -18 -1 -50 -7 -71 -14z m223 -172 c86 -41 271 -165 451
-303 196 -149 268 -224 297 -310 30 -87 -30 -194 -114 -207 -38 -5 -56 0 -146
42 -177 82 -398 225 -594 385 -113 92 -184 197 -184 271 1 45 32 110 66 137
42 33 135 27 224 -15z"/>
<path d="M2995 6224 c-274 -128 -767 -356 -943 -435 l-63 -28 31 -61 c17 -33
34 -59 38 -56 9 5 355 173 510 247 68 33 127 59 132 59 8 0 213 -361 207 -365
-1 -1 -141 -77 -312 -169 -170 -92 -311 -169 -313 -171 -6 -5 61 -115 70 -115
5 0 32 13 61 29 28 16 315 167 637 336 322 169 586 308 588 310 2 2 -13 28
-33 58 l-37 55 -36 -15 c-20 -8 -139 -67 -265 -130 -126 -63 -233 -113 -238
-111 -14 5 -188 332 -181 340 4 3 119 59 257 122 137 64 253 120 258 125 10
10 -36 121 -50 120 -4 0 -147 -65 -318 -145z"/>
<path d="M15571 5915 l-31 -55 37 -33 c170 -152 649 -584 693 -625 l55 -53
-370 184 c-472 235 -568 282 -577 282 -5 0 -35 -38 -68 -85 l-61 -84 43 -42
c70 -69 1040 -934 1047 -934 11 1 72 101 66 110 -3 5 -189 172 -413 372 -224
200 -429 384 -457 411 l-50 47 65 -29 c36 -15 96 -43 133 -60 116 -54 471
-218 707 -328 124 -58 230 -107 236 -109 6 -3 28 21 49 52 l38 58 -34 29 c-19
17 -74 67 -124 111 -312 283 -938 836 -947 836 -3 0 -20 -25 -37 -55z"/>
<path d="M15157 5328 c-20 -25 -37 -49 -37 -54 0 -5 104 -113 230 -239 127
-126 230 -234 230 -238 0 -9 -205 -263 -219 -272 -5 -3 -112 101 -237 230
-126 129 -231 235 -234 235 -3 0 -23 -23 -44 -50 l-38 -50 43 -48 c24 -26 46
-49 49 -52 3 -3 91 -95 195 -205 423 -448 534 -564 623 -655 l93 -95 39 45
c22 25 40 48 40 51 0 3 -98 113 -217 244 -120 131 -219 241 -221 245 -2 6 172
226 212 268 10 10 47 -25 192 -180 98 -106 202 -219 229 -250 l51 -57 41 52
42 51 -57 61 c-50 53 -502 525 -847 883 l-121 125 -37 -45z"/>
<path d="M3720 5346 c-211 -61 -525 -269 -732 -484 -147 -154 -188 -258 -154
-391 9 -33 23 -73 33 -89 83 -134 199 -157 364 -74 129 64 125 60 93 124 -14
29 -27 54 -28 55 -1 1 -42 -18 -91 -42 -129 -65 -190 -62 -235 10 -31 50 -31
117 1 180 46 93 240 270 435 398 191 126 350 193 435 185 61 -6 91 -32 112
-98 25 -78 -3 -144 -96 -224 l-52 -45 30 -61 30 -61 81 74 c92 86 131 154 140
245 12 109 -40 221 -128 279 -35 24 -53 28 -117 30 -42 1 -96 -4 -121 -11z"/>
<path d="M3982 4707 c-160 -130 -404 -327 -544 -438 -139 -111 -259 -208 -267
-215 -11 -10 -7 -21 29 -63 24 -28 46 -51 49 -51 3 0 139 106 301 235 162 129
297 235 300 234 3 0 53 -62 113 -137 l107 -137 -47 -40 c-26 -22 -126 -110
-223 -195 -97 -85 -200 -176 -230 -202 l-55 -47 45 -45 45 -45 215 191 c118
105 296 261 395 346 99 86 182 159 185 162 3 3 67 61 143 129 75 68 137 126
137 129 0 4 -19 25 -41 49 l-42 42 -121 -111 c-67 -61 -143 -132 -171 -156
-27 -25 -69 -63 -91 -85 l-42 -39 -103 131 c-57 73 -105 137 -107 144 -2 10
235 210 396 335 15 11 11 18 -34 63 l-51 51 -291 -235z"/>
<path d="M14694 4729 c-45 -13 -125 -88 -154 -145 -35 -70 -40 -185 -10 -274
70 -210 303 -546 526 -759 114 -109 189 -151 271 -151 70 0 99 13 156 68 67
65 89 112 95 199 6 95 -23 187 -93 294 l-51 79 -47 -48 -47 -47 38 -55 c84
-120 105 -226 57 -290 -73 -99 -169 -78 -316 69 -226 227 -475 608 -487 746
-6 68 9 104 60 151 37 33 44 36 81 30 48 -8 78 -28 137 -92 l44 -47 42 48 42
49 -19 27 c-32 45 -111 110 -164 135 -52 25 -106 29 -161 13z"/>
<path d="M14195 4284 c-94 -80 -180 -156 -193 -168 l-23 -22 242 -400 c133
-219 303 -500 378 -624 75 -124 139 -227 142 -230 3 -3 93 72 199 165 106 94
198 173 203 176 5 3 -8 32 -28 63 -33 52 -38 56 -53 44 -9 -8 -70 -61 -136
-119 -154 -135 -155 -136 -167 -118 -32 49 -289 478 -294 490 -4 10 28 42 95
98 55 46 105 90 111 97 9 11 3 26 -21 64 -18 27 -37 50 -42 50 -11 0 -84 -60
-161 -130 -63 -57 -60 -58 -120 43 -108 182 -167 288 -167 300 0 7 63 66 139
132 l139 120 -19 35 c-11 19 -28 45 -37 58 l-17 22 -170 -146z"/>
<path d="M4693 4283 c-65 -59 -176 -162 -248 -228 -129 -121 -527 -483 -640
-583 l-59 -52 44 -45 c24 -25 47 -45 51 -45 5 0 41 30 81 68 41 37 114 103
163 147 49 44 197 179 329 300 132 121 290 264 350 319 169 149 154 131 125
162 -13 14 -36 35 -51 46 l-28 19 -117 -108z"/>
<path d="M4532 3677 l-514 -502 58 -52 58 -52 448 452 448 452 -159 -285 c-87
-157 -202 -364 -256 -460 -54 -96 -122 -218 -151 -271 -30 -53 -54 -100 -53
-105 0 -5 23 -26 51 -48 l50 -38 411 418 c226 231 460 469 519 529 l108 111
-51 38 c-27 20 -54 36 -60 34 -5 -2 -71 -64 -146 -138 -322 -316 -496 -484
-491 -475 3 6 94 176 203 378 108 202 198 373 199 380 1 12 -139 137 -153 137
-3 0 -237 -226 -519 -503z"/>
<path d="M10633 4134 c-76 -27 -133 -103 -133 -176 1 -74 60 -152 135 -179 19
-7 35 -16 35 -19 0 -3 -16 -22 -36 -41 -48 -45 -64 -79 -64 -131 0 -63 27
-109 80 -136 39 -20 55 -23 118 -18 138 9 230 80 240 186 9 93 -47 164 -159
201 -19 7 -36 13 -38 15 -2 2 12 21 32 43 64 71 69 157 13 220 -45 50 -137 65
-223 35z m130 -52 c49 -43 61 -136 27 -203 -24 -45 -27 -45 -115 -4 -29 14
-58 37 -68 54 -21 37 -22 99 -1 130 35 50 114 62 157 23z m65 -361 c63 -32 87
-66 87 -121 0 -60 -26 -98 -80 -117 -82 -29 -153 15 -175 105 -9 42 -9 56 5
88 26 63 44 77 88 70 21 -4 55 -15 75 -25z"/>
<path d="M8318 4104 c-20 -19 -5 -33 40 -39 86 -11 85 4 26 -220 -95 -364 -82
-327 -118 -322 -116 20 -118 20 -114 2 4 -25 364 -119 372 -98 4 9 -9 20 -40
33 -25 11 -49 20 -52 20 -4 0 -13 4 -20 9 -13 8 -4 48 126 544 8 32 13 59 11
61 -9 8 -224 17 -231 10z"/>
<path d="M9903 4021 c-94 -33 -119 -50 -94 -65 5 -3 34 -1 65 6 31 6 59 8 62
5 7 -7 54 -549 48 -558 -2 -4 -34 -13 -70 -20 -56 -11 -87 -30 -73 -44 2 -2
92 4 199 13 170 15 195 19 198 35 3 15 -5 17 -68 17 -48 0 -72 4 -75 13 -2 6
-13 129 -25 272 -29 372 -29 365 -48 364 -9 -1 -63 -18 -119 -38z"/>
<path d="M9148 4026 c-61 -22 -84 -42 -112 -97 -50 -101 -27 -222 52 -274 55
-37 134 -43 186 -16 l38 20 -6 -31 c-18 -92 -100 -186 -200 -229 -36 -15 -56
-30 -56 -41 0 -16 4 -16 53 -2 128 38 220 112 273 219 31 63 37 86 41 162 4
67 1 104 -12 148 -35 121 -144 181 -257 141z m106 -37 c33 -15 56 -67 66 -145
12 -96 3 -142 -31 -159 -63 -33 -140 -8 -166 53 -21 50 -20 149 2 196 27 57
78 78 129 55z"/>
<path d="M13650 3859 c-129 -93 -242 -174 -250 -178 -12 -8 -11 -14 5 -44 10
-20 26 -45 35 -57 l17 -22 95 66 c53 36 100 66 105 66 5 0 94 -141 197 -312
349 -579 479 -793 486 -801 6 -7 51 16 103 54 5 4 -81 154 -190 335 -389 640
-486 806 -476 812 52 36 183 135 183 139 0 11 -62 113 -68 113 -4 -1 -113 -77
-242 -171z"/>
<path d="M5670 3597 c-86 -82 -733 -686 -908 -847 -50 -47 -92 -89 -92 -95 0
-5 23 -25 51 -43 l50 -33 195 188 c108 103 201 192 208 197 9 6 42 -15 112
-74 55 -46 100 -84 102 -85 1 -1 -50 -109 -113 -240 l-115 -239 58 -32 c31
-18 60 -29 65 -25 5 5 576 1241 603 1306 4 9 -70 67 -121 97 -6 3 -48 -31 -95
-75z m-103 -411 c-63 -136 -116 -248 -119 -249 -3 -1 -40 27 -83 62 l-78 65
194 187 c107 103 195 186 196 185 2 -2 -48 -114 -110 -250z"/>
<path d="M12865 3371 c-145 -78 -219 -123 -217 -132 2 -8 48 -126 102 -264
191 -481 367 -931 395 -1005 16 -41 30 -76 31 -78 3 -5 114 51 114 58 0 7 -32
90 -164 433 -59 153 -105 284 -103 290 3 7 67 45 144 86 76 41 139 75 141 76
3 3 -40 108 -48 118 -4 5 -71 -26 -148 -67 -77 -42 -143 -76 -145 -76 -6 0
-161 370 -156 374 2 2 75 40 161 86 87 45 160 85 163 90 3 4 -7 35 -23 69
l-27 61 -220 -119z"/>
<path d="M6082 2817 c-111 -298 -207 -567 -213 -597 -26 -142 44 -305 154
-362 63 -32 151 -35 210 -8 53 25 132 107 155 160 8 19 90 235 182 480 93 245
182 481 199 525 17 44 31 83 31 87 0 7 -92 58 -104 58 -6 0 -56 -129 -236
-610 -184 -490 -183 -490 -223 -527 -37 -35 -97 -58 -132 -49 -39 10 -82 54
-101 101 -33 88 -23 122 196 699 110 291 199 530 198 531 -5 4 -107 55 -110
55 -2 0 -94 -244 -206 -543z"/>
<path d="M12320 3121 c-90 -28 -167 -102 -193 -185 -22 -73 -13 -227 21 -367
87 -357 233 -710 334 -812 58 -58 106 -80 174 -79 95 1 188 65 233 161 23 50
26 68 25 166 -2 280 -180 821 -334 1013 -73 91 -171 130 -260 103z m110 -146
c97 -50 209 -292 327 -709 33 -115 37 -144 38 -243 0 -97 -3 -115 -21 -139
-103 -139 -241 -60 -340 196 -44 116 -160 464 -178 540 -22 86 -29 193 -16
242 27 101 113 153 190 113z"/>
<path d="M6827 2877 c-216 -714 -347 -1155 -349 -1176 -3 -20 5 -26 50 -44 29
-11 54 -18 56 -16 2 2 32 103 68 224 89 299 262 866 287 940 l20 60 -5 -680
-6 -681 57 -18 c31 -9 59 -15 63 -12 3 4 32 104 64 224 197 731 234 872 269
1005 22 82 39 155 39 162 0 12 -77 45 -105 45 -6 0 -17 -21 -23 -47 -6 -27
-29 -115 -51 -198 -22 -82 -74 -280 -115 -440 -42 -159 -81 -299 -86 -310 -7
-14 -8 23 -5 115 2 74 6 324 7 555 l3 419 -84 33 c-47 18 -87 33 -90 33 -3 0
-32 -87 -64 -193z"/>
<path d="M11565 2833 c-27 -8 -53 -18 -57 -21 -3 -4 -20 -137 -38 -297 -17
-159 -35 -299 -39 -309 -5 -14 -38 50 -131 253 l-125 272 -35 -6 c-19 -4 -46
-12 -61 -18 l-26 -12 177 -360 177 -360 73 -335 c40 -184 73 -336 74 -337 5
-6 116 30 116 37 0 8 -23 119 -100 479 l-41 195 46 414 c25 228 45 416 43 417
-2 1 -25 -4 -53 -12z"/>
<path d="M7446 2418 c-49 -227 -117 -545 -152 -707 -35 -162 -63 -295 -62
-296 6 -5 98 -25 112 -25 9 0 16 7 16 15 0 8 63 310 139 672 77 362 142 674
146 694 7 36 7 36 -39 48 -24 6 -51 11 -59 11 -10 0 -37 -109 -101 -412z"/>
<path d="M7734 2127 c3 -364 9 -703 12 -753 l6 -92 56 -11 c30 -6 57 -9 60 -7
2 3 29 83 59 178 30 95 70 220 88 278 169 531 294 934 291 937 -4 5 -118 25
-120 21 -2 -2 -213 -710 -299 -1002 l-24 -79 -6 123 c-4 68 -7 327 -7 576 l0
452 -61 21 -62 21 7 -663z"/>
<path d="M10710 2645 c-124 -19 -243 -36 -266 -40 l-40 -6 4 -62 c2 -34 7 -65
11 -69 3 -3 55 1 114 9 59 9 110 14 112 11 2 -2 41 -296 86 -653 45 -358 82
-651 83 -651 5 -7 116 20 116 28 0 6 -36 298 -81 650 -59 470 -78 642 -69 648
6 4 56 15 111 25 55 10 103 23 106 28 3 4 2 33 -2 63 -8 65 18 64 -285 19z"/>
<path d="M8396 2595 c-3 -27 -35 -285 -71 -574 -36 -289 -74 -591 -85 -670
-11 -80 -19 -146 -17 -148 4 -4 501 -72 504 -69 1 1 5 34 9 72 l6 70 -188 22
c-103 13 -189 24 -191 25 -3 3 69 530 73 536 2 1 59 -5 128 -15 70 -9 129 -14
133 -11 7 8 25 128 19 134 -2 2 -58 11 -124 20 -66 9 -125 19 -132 23 -8 5 -3
71 18 233 15 125 31 230 35 233 6 6 263 -28 324 -43 24 -5 28 3 38 87 l6 55
-208 29 c-114 15 -222 30 -239 33 -30 5 -31 4 -38 -42z"/>
<path d="M10248 2583 c-20 -3 -28 -10 -28 -24 0 -11 27 -328 60 -704 33 -376
60 -696 60 -710 0 -26 0 -26 58 -19 31 4 59 10 62 15 3 5 -2 88 -11 186 -10
98 -36 399 -58 668 -55 653 -46 595 -85 594 -17 -1 -43 -4 -58 -6z"/>
<path d="M8976 2517 c-3 -34 -17 -339 -31 -677 -14 -338 -26 -640 -28 -670
l-2 -55 63 -3 62 -3 0 43 c0 80 21 583 26 616 l5 33 62 -3 61 -3 72 -343 c40
-189 75 -346 78 -349 9 -9 139 -16 134 -7 -3 5 -41 171 -84 368 -64 296 -76
360 -64 364 8 3 34 24 57 48 33 34 47 61 64 116 12 40 26 79 32 85 5 8 8 63 5
135 -6 149 -27 213 -90 275 -70 68 -95 75 -325 88 l-91 5 -6 -63z m301 -115
c36 -25 69 -97 78 -168 5 -37 1 -71 -15 -130 -37 -137 -69 -164 -194 -164
l-79 0 6 73 c4 39 9 144 12 232 4 88 9 166 11 174 7 22 144 10 181 -17z"/>
<path d="M9805 2551 c-145 -37 -215 -170 -215 -408 0 -154 19 -213 89 -283 31
-31 85 -70 121 -88 154 -77 184 -98 215 -147 28 -46 30 -54 30 -154 0 -90 -3
-112 -22 -148 -28 -51 -66 -79 -127 -93 -135 -30 -210 58 -221 256 l-4 79 -52
3 -52 3 5 -118 c7 -142 30 -211 95 -283 114 -127 329 -102 424 49 62 96 91
277 65 400 -27 128 -87 195 -245 273 -180 88 -217 140 -209 295 8 154 57 223
161 223 97 0 140 -49 159 -179 l12 -81 53 0 53 0 0 49 c0 154 -60 279 -160
331 -41 21 -132 32 -175 21z"/>
</g>
</svg>
